<svg width="85" height="14" viewBox="0 0 85 14" fill="none" xmlns="http://www.w3.org/2000/svg">
<g clip-path="url(#clip0_536_2949)">
<path d="M4.476 6.104C3.988 6.104 3.552 6.2 3.168 6.392C2.784 6.576 2.508 6.844 2.34 7.196V11H0.732V4.712H2.208V6.056C2.432 5.624 2.716 5.284 3.06 5.036C3.404 4.788 3.768 4.652 4.152 4.628C4.24 4.628 4.308 4.628 4.356 4.628C4.404 4.628 4.444 4.632 4.476 4.64V6.104ZM8.20659 11.12C7.70259 11.12 7.24659 11.036 6.83859 10.868C6.43059 10.692 6.08259 10.456 5.79459 10.16C5.50659 9.856 5.28259 9.512 5.12259 9.128C4.97059 8.736 4.89459 8.324 4.89459 7.892C4.89459 7.292 5.02659 6.744 5.29059 6.248C5.56259 5.752 5.94659 5.356 6.44259 5.06C6.94659 4.756 7.53859 4.604 8.21859 4.604C8.90659 4.604 9.49459 4.756 9.98259 5.06C10.4706 5.356 10.8426 5.752 11.0986 6.248C11.3626 6.736 11.4946 7.264 11.4946 7.832C11.4946 7.928 11.4906 8.028 11.4826 8.132C11.4746 8.228 11.4666 8.308 11.4586 8.372H6.59859C6.63059 8.692 6.72259 8.972 6.87459 9.212C7.03459 9.452 7.23459 9.636 7.47459 9.764C7.72259 9.884 7.98659 9.944 8.26659 9.944C8.58659 9.944 8.88659 9.868 9.16659 9.716C9.45459 9.556 9.65059 9.348 9.75459 9.092L11.1346 9.476C10.9826 9.796 10.7626 10.08 10.4746 10.328C10.1946 10.576 9.86259 10.772 9.47859 10.916C9.09459 11.052 8.67059 11.12 8.20659 11.12ZM6.56259 7.352H9.85059C9.81859 7.032 9.72659 6.756 9.57459 6.524C9.43059 6.284 9.23859 6.1 8.99859 5.972C8.75859 5.836 8.49059 5.768 8.19459 5.768C7.90659 5.768 7.64259 5.836 7.40259 5.972C7.17059 6.1 6.97859 6.284 6.82659 6.524C6.68259 6.756 6.59459 7.032 6.56259 7.352ZM12.0422 9.14C12.0422 8.732 12.1542 8.376 12.3782 8.072C12.6102 7.76 12.9302 7.52 13.3382 7.352C13.7462 7.184 14.2142 7.1 14.7422 7.1C15.0062 7.1 15.2742 7.12 15.5462 7.16C15.8182 7.2 16.0542 7.264 16.2542 7.352V7.016C16.2542 6.616 16.1342 6.308 15.8942 6.092C15.6622 5.876 15.3142 5.768 14.8502 5.768C14.5062 5.768 14.1782 5.828 13.8662 5.948C13.5542 6.068 13.2262 6.244 12.8822 6.476L12.3662 5.42C12.7822 5.148 13.2062 4.944 13.6382 4.808C14.0782 4.672 14.5382 4.604 15.0182 4.604C15.9142 4.604 16.6102 4.828 17.1062 5.276C17.6102 5.724 17.8622 6.364 17.8622 7.196V9.2C17.8622 9.368 17.8902 9.488 17.9462 9.56C18.0102 9.632 18.1102 9.676 18.2462 9.692V11C18.1022 11.024 17.9702 11.044 17.8502 11.06C17.7382 11.076 17.6422 11.084 17.5622 11.084C17.2422 11.084 16.9982 11.012 16.8302 10.868C16.6702 10.724 16.5702 10.548 16.5302 10.34L16.4942 10.016C16.2222 10.368 15.8822 10.64 15.4742 10.832C15.0662 11.024 14.6502 11.12 14.2262 11.12C13.8102 11.12 13.4342 11.036 13.0982 10.868C12.7702 10.692 12.5102 10.456 12.3182 10.16C12.1342 9.856 12.0422 9.516 12.0422 9.14ZM15.9542 9.464C16.0422 9.368 16.1142 9.272 16.1702 9.176C16.2262 9.08 16.2542 8.992 16.2542 8.912V8.276C16.0622 8.196 15.8542 8.136 15.6302 8.096C15.4062 8.048 15.1942 8.024 14.9942 8.024C14.5782 8.024 14.2342 8.116 13.9622 8.3C13.6982 8.476 13.5662 8.712 13.5662 9.008C13.5662 9.168 13.6102 9.32 13.6982 9.464C13.7862 9.608 13.9142 9.724 14.0822 9.812C14.2502 9.9 14.4502 9.944 14.6822 9.944C14.9222 9.944 15.1582 9.9 15.3902 9.812C15.6222 9.716 15.8102 9.6 15.9542 9.464ZM18.9808 7.856C18.9808 7.248 19.1008 6.7 19.3408 6.212C19.5808 5.716 19.9128 5.324 20.3368 5.036C20.7608 4.748 21.2448 4.604 21.7888 4.604C22.2528 4.604 22.6688 4.72 23.0368 4.952C23.4128 5.176 23.7048 5.464 23.9128 5.816V2.24H25.5208V9.2C25.5208 9.368 25.5488 9.488 25.6048 9.56C25.6608 9.632 25.7568 9.676 25.8928 9.692V11C25.6128 11.056 25.3848 11.084 25.2088 11.084C24.9208 11.084 24.6808 11.012 24.4888 10.868C24.3048 10.724 24.2008 10.536 24.1768 10.304L24.1528 9.908C23.9208 10.3 23.6048 10.6 23.2048 10.808C22.8128 11.016 22.4008 11.12 21.9688 11.12C21.5368 11.12 21.1368 11.036 20.7688 10.868C20.4088 10.7 20.0928 10.468 19.8208 10.172C19.5568 9.876 19.3488 9.532 19.1968 9.14C19.0528 8.74 18.9808 8.312 18.9808 7.856ZM23.9128 8.696V7.196C23.8328 6.964 23.7048 6.756 23.5288 6.572C23.3528 6.388 23.1568 6.244 22.9408 6.14C22.7248 6.028 22.5088 5.972 22.2928 5.972C22.0448 5.972 21.8208 6.024 21.6208 6.128C21.4208 6.232 21.2448 6.372 21.0928 6.548C20.9488 6.724 20.8368 6.928 20.7568 7.16C20.6848 7.392 20.6488 7.636 20.6488 7.892C20.6488 8.148 20.6888 8.392 20.7688 8.624C20.8568 8.848 20.9808 9.044 21.1408 9.212C21.3008 9.38 21.4848 9.512 21.6928 9.608C21.9088 9.704 22.1408 9.752 22.3888 9.752C22.5408 9.752 22.6928 9.728 22.8448 9.68C23.0048 9.624 23.1528 9.552 23.2888 9.464C23.4328 9.368 23.5568 9.256 23.6608 9.128C23.7728 8.992 23.8568 8.848 23.9128 8.696ZM39.75 11H38.142V7.472C38.142 6.976 38.054 6.612 37.878 6.38C37.71 6.14 37.474 6.02 37.17 6.02C36.858 6.02 36.558 6.144 36.27 6.392C35.99 6.632 35.79 6.948 35.67 7.34V11H34.062V7.472C34.062 6.968 33.974 6.6 33.798 6.368C33.63 6.136 33.394 6.02 33.09 6.02C32.778 6.02 32.478 6.14 32.19 6.38C31.91 6.62 31.71 6.936 31.59 7.328V11H29.982V4.712H31.434V5.876C31.674 5.468 31.994 5.156 32.394 4.94C32.794 4.716 33.254 4.604 33.774 4.604C34.294 4.604 34.698 4.732 34.986 4.988C35.282 5.244 35.47 5.56 35.55 5.936C35.806 5.504 36.13 5.176 36.522 4.952C36.922 4.72 37.37 4.604 37.866 4.604C38.258 4.604 38.574 4.676 38.814 4.82C39.062 4.956 39.254 5.144 39.39 5.384C39.526 5.616 39.618 5.88 39.666 6.176C39.722 6.472 39.75 6.772 39.75 7.076V11ZM44.054 11.12C43.542 11.12 43.082 11.036 42.674 10.868C42.266 10.692 41.918 10.452 41.63 10.148C41.35 9.844 41.134 9.496 40.982 9.104C40.83 8.712 40.754 8.3 40.754 7.868C40.754 7.428 40.83 7.012 40.982 6.62C41.134 6.228 41.35 5.88 41.63 5.576C41.918 5.272 42.266 5.036 42.674 4.868C43.082 4.692 43.542 4.604 44.054 4.604C44.566 4.604 45.022 4.692 45.422 4.868C45.83 5.036 46.178 5.272 46.466 5.576C46.754 5.88 46.97 6.228 47.114 6.62C47.266 7.012 47.342 7.428 47.342 7.868C47.342 8.3 47.266 8.712 47.114 9.104C46.97 9.496 46.754 9.844 46.466 10.148C46.186 10.452 45.842 10.692 45.434 10.868C45.026 11.036 44.566 11.12 44.054 11.12ZM42.41 7.868C42.41 8.236 42.482 8.564 42.626 8.852C42.77 9.132 42.966 9.352 43.214 9.512C43.462 9.672 43.742 9.752 44.054 9.752C44.358 9.752 44.634 9.672 44.882 9.512C45.13 9.344 45.326 9.12 45.47 8.84C45.622 8.552 45.698 8.224 45.698 7.856C45.698 7.496 45.622 7.172 45.47 6.884C45.326 6.596 45.13 6.372 44.882 6.212C44.634 6.052 44.358 5.972 44.054 5.972C43.742 5.972 43.462 6.056 43.214 6.224C42.966 6.384 42.77 6.608 42.626 6.896C42.482 7.176 42.41 7.5 42.41 7.868ZM52.1713 6.104C51.6833 6.104 51.2473 6.2 50.8633 6.392C50.4793 6.576 50.2033 6.844 50.0353 7.196V11H48.4273V4.712H49.9033V6.056C50.1273 5.624 50.4113 5.284 50.7553 5.036C51.0993 4.788 51.4633 4.652 51.8473 4.628C51.9353 4.628 52.0033 4.628 52.0513 4.628C52.0993 4.628 52.1393 4.632 52.1713 4.64V6.104ZM55.9019 11.12C55.3979 11.12 54.9419 11.036 54.5339 10.868C54.1259 10.692 53.7779 10.456 53.4899 10.16C53.2019 9.856 52.9779 9.512 52.8179 9.128C52.6659 8.736 52.5899 8.324 52.5899 7.892C52.5899 7.292 52.7219 6.744 52.9859 6.248C53.2579 5.752 53.6419 5.356 54.1379 5.06C54.6419 4.756 55.2339 4.604 55.9139 4.604C56.6019 4.604 57.1899 4.756 57.6779 5.06C58.1659 5.356 58.5379 5.752 58.7939 6.248C59.0579 6.736 59.1899 7.264 59.1899 7.832C59.1899 7.928 59.1859 8.028 59.1779 8.132C59.1699 8.228 59.1619 8.308 59.1539 8.372H54.2939C54.3259 8.692 54.4179 8.972 54.5699 9.212C54.7299 9.452 54.9299 9.636 55.1699 9.764C55.4179 9.884 55.6819 9.944 55.9619 9.944C56.2819 9.944 56.5819 9.868 56.8619 9.716C57.1499 9.556 57.3459 9.348 57.4499 9.092L58.8299 9.476C58.6779 9.796 58.4579 10.08 58.1699 10.328C57.8899 10.576 57.5579 10.772 57.1739 10.916C56.7899 11.052 56.3659 11.12 55.9019 11.12ZM54.2579 7.352H57.5459C57.5139 7.032 57.4219 6.756 57.2699 6.524C57.1259 6.284 56.9339 6.1 56.6939 5.972C56.4539 5.836 56.1859 5.768 55.8899 5.768C55.6019 5.768 55.3379 5.836 55.0979 5.972C54.8659 6.1 54.6739 6.284 54.5219 6.524C54.3779 6.756 54.2899 7.032 54.2579 7.352Z" fill="#FAE084"/>
<path d="M79.3327 2.00008L78.3927 2.94008L82.1127 6.66675L68.666 6.66675L68.666 8.00008L82.1127 8.00008L78.386 11.7201L79.3327 12.6667L84.666 7.33341L79.3327 2.00008Z" fill="#FAE084"/>
</g>
<defs>
<clipPath id="clip0_536_2949">
<rect width="84.666" height="14" fill="white"/>
</clipPath>
</defs>
</svg>
