<svg width="34" height="34" viewBox="0 0 34 34" fill="none" xmlns="http://www.w3.org/2000/svg">
<g clip-path="url(#clip0_310_12157)">
<path d="M24.067 10.2145C22.7315 8.82343 21.0134 7.85966 19.1302 7.44504C17.2469 7.03042 15.283 7.18356 13.4868 7.8851C11.6905 8.58664 10.1427 9.80507 9.03892 11.3863C7.93516 12.9676 7.32509 14.8406 7.28584 16.7686C7.24659 18.6965 7.77993 20.5928 8.81842 22.2177C9.85691 23.8425 11.3539 25.123 13.1201 25.897C14.8863 26.6711 16.8423 26.904 18.7409 26.5664C20.6395 26.2288 22.3953 25.3357 23.7864 24.0002C25.6492 22.2079 26.7249 19.7498 26.7775 17.1654C26.8301 14.5809 25.8553 12.0811 24.067 10.2145ZM18.5489 20.7109C18.4054 20.8487 18.2131 20.9238 18.0142 20.9198C17.8154 20.9157 17.6262 20.8328 17.4885 20.6893C17.3507 20.5458 17.2756 20.3535 17.2796 20.1546C17.2837 19.9558 17.3666 19.7667 17.5101 19.6289L19.4503 17.7661L12.7768 17.6309C12.6783 17.6289 12.5811 17.6075 12.4908 17.568C12.4006 17.5284 12.319 17.4714 12.2507 17.4004C12.1825 17.3293 12.1289 17.2454 12.0931 17.1536C12.0572 17.0619 12.0398 16.9639 12.0418 16.8654C12.0438 16.7668 12.0652 16.6697 12.1047 16.5794C12.1443 16.4892 12.2013 16.4076 12.2723 16.3393C12.3434 16.2711 12.4273 16.2175 12.5191 16.1817C12.6108 16.1458 12.7088 16.1284 12.8073 16.1304L19.4808 16.2669L17.618 14.3267C17.4802 14.1832 17.4051 13.9909 17.4092 13.792C17.4132 13.5931 17.4961 13.404 17.6396 13.2663C17.7831 13.1285 17.9754 13.0534 18.1743 13.0574C18.3732 13.0615 18.5623 13.1444 18.7 13.2878L21.8166 16.5339C21.9544 16.6774 22.0295 16.8697 22.0254 17.0686C22.0214 17.2675 21.9385 17.4566 21.795 17.5944L18.5489 20.7109Z" fill="white"/>
</g>
<defs>
<clipPath id="clip0_310_12157">
<rect width="24" height="24" fill="white" transform="translate(17.3789) rotate(46.1662)"/>
</clipPath>
</defs>
</svg>
