<svg width="79" height="20" viewBox="0 0 79 20" fill="none" xmlns="http://www.w3.org/2000/svg">
<path d="M7.63547 10.484C7.63547 11.188 7.49947 11.816 7.22747 12.368C6.96347 12.912 6.59547 13.34 6.12347 13.652C5.65947 13.964 5.13147 14.12 4.53947 14.12C3.94747 14.12 3.41547 13.964 2.94347 13.652C2.47947 13.34 2.11147 12.912 1.83947 12.368C1.57547 11.816 1.44347 11.188 1.44347 10.484C1.44347 9.78 1.57547 9.156 1.83947 8.612C2.11147 8.06 2.47947 7.628 2.94347 7.316C3.41547 6.996 3.94747 6.836 4.53947 6.836C5.13147 6.836 5.65947 6.996 6.12347 7.316C6.59547 7.628 6.96347 8.06 7.22747 8.612C7.49947 9.156 7.63547 9.78 7.63547 10.484ZM6.01547 10.484C6.01547 10.052 5.95147 9.676 5.82347 9.356C5.70347 9.028 5.53147 8.772 5.30747 8.588C5.08347 8.404 4.82747 8.312 4.53947 8.312C4.24347 8.312 3.98347 8.404 3.75947 8.588C3.53547 8.772 3.35947 9.028 3.23147 9.356C3.11147 9.676 3.05147 10.052 3.05147 10.484C3.05147 10.916 3.11147 11.292 3.23147 11.612C3.35947 11.932 3.53547 12.184 3.75947 12.368C3.98347 12.552 4.24347 12.644 4.53947 12.644C4.82747 12.644 5.07947 12.552 5.29547 12.368C5.51947 12.184 5.69547 11.932 5.82347 11.612C5.95147 11.284 6.01547 10.908 6.01547 10.484ZM8.68256 14C8.68256 13.64 8.71056 13.316 8.76656 13.028C8.82256 12.74 8.91856 12.472 9.05456 12.224C9.19856 11.976 9.39056 11.744 9.63056 11.528C9.87856 11.304 10.1906 11.088 10.5666 10.88C10.8946 10.704 11.1826 10.552 11.4306 10.424C11.6786 10.288 11.8866 10.164 12.0546 10.052C12.2306 9.94 12.3626 9.828 12.4506 9.716C12.5386 9.596 12.5826 9.46 12.5826 9.308C12.5826 9.148 12.5386 9.004 12.4506 8.876C12.3626 8.74 12.2386 8.632 12.0786 8.552C11.9186 8.472 11.7186 8.432 11.4786 8.432C11.2866 8.432 11.1066 8.456 10.9386 8.504C10.7786 8.552 10.6266 8.62 10.4826 8.708C10.3466 8.796 10.2186 8.896 10.0986 9.008C9.97856 9.112 9.87056 9.224 9.77456 9.344L8.75456 8.168C8.86656 8.056 9.01456 7.936 9.19856 7.808C9.39056 7.672 9.61456 7.548 9.87056 7.436C10.1346 7.316 10.4226 7.22 10.7346 7.148C11.0546 7.068 11.3946 7.028 11.7546 7.028C12.2986 7.028 12.7626 7.116 13.1466 7.292C13.5306 7.46 13.8226 7.696 14.0226 8C14.2306 8.304 14.3346 8.66 14.3346 9.068C14.3346 9.348 14.2826 9.596 14.1786 9.812C14.0746 10.028 13.9426 10.22 13.7826 10.388C13.6226 10.548 13.4466 10.692 13.2546 10.82C13.0706 10.948 12.8906 11.06 12.7146 11.156C12.4666 11.284 12.2426 11.404 12.0426 11.516C11.8426 11.62 11.6666 11.728 11.5146 11.84C11.3626 11.944 11.2266 12.052 11.1066 12.164C10.9946 12.276 10.8946 12.404 10.8066 12.548H14.4666V14H8.68256Z" fill="#FAE084"/>
<rect x="31" y="10" width="48" height="1.33333" fill="#FAE084"/>
</svg>
