<svg width="78" height="20" viewBox="0 0 78 20" fill="none" xmlns="http://www.w3.org/2000/svg">
<path d="M70.78 10.484C70.78 11.188 70.644 11.816 70.372 12.368C70.108 12.912 69.74 13.34 69.268 13.652C68.804 13.964 68.276 14.12 67.684 14.12C67.092 14.12 66.56 13.964 66.088 13.652C65.624 13.34 65.256 12.912 64.984 12.368C64.72 11.816 64.588 11.188 64.588 10.484C64.588 9.78 64.72 9.156 64.984 8.612C65.256 8.06 65.624 7.628 66.088 7.316C66.56 6.996 67.092 6.836 67.684 6.836C68.276 6.836 68.804 6.996 69.268 7.316C69.74 7.628 70.108 8.06 70.372 8.612C70.644 9.156 70.78 9.78 70.78 10.484ZM69.16 10.484C69.16 10.052 69.096 9.676 68.968 9.356C68.848 9.028 68.676 8.772 68.452 8.588C68.228 8.404 67.972 8.312 67.684 8.312C67.388 8.312 67.128 8.404 66.904 8.588C66.68 8.772 66.504 9.028 66.376 9.356C66.256 9.676 66.196 10.052 66.196 10.484C66.196 10.916 66.256 11.292 66.376 11.612C66.504 11.932 66.68 12.184 66.904 12.368C67.128 12.552 67.388 12.644 67.684 12.644C67.972 12.644 68.224 12.552 68.44 12.368C68.664 12.184 68.84 11.932 68.968 11.612C69.096 11.284 69.16 10.908 69.16 10.484ZM77.0111 12.548V14H72.1391V12.548H73.8431V8.912C73.7711 9.008 73.6591 9.108 73.5071 9.212C73.3551 9.308 73.1831 9.4 72.9911 9.488C72.7991 9.576 72.6071 9.648 72.4151 9.704C72.2231 9.76 72.0511 9.788 71.8991 9.788V8.288C72.0431 8.288 72.2151 8.244 72.4151 8.156C72.6231 8.06 72.8271 7.948 73.0271 7.82C73.2351 7.692 73.4111 7.568 73.5551 7.448C73.7071 7.32 73.8031 7.22 73.8431 7.148H75.4871V12.548H77.0111Z" fill="#FAE084"/>
<rect y="9.66675" width="48" height="1.33333" fill="#FAE084"/>
</svg>
