<svg width="34" height="34" viewBox="0 0 34 34" fill="none" xmlns="http://www.w3.org/2000/svg">
<g clip-path="url(#clip0_884_4632)">
<path d="M24.066 10.2145C22.7305 8.82343 21.0125 7.85966 19.1292 7.44504C17.2459 7.03042 15.282 7.18356 13.4858 7.8851C11.6896 8.58664 10.1417 9.80507 9.03794 11.3863C7.93419 12.9676 7.32411 14.8406 7.28486 16.7686C7.24561 18.6965 7.77896 20.5928 8.81744 22.2177C9.85593 23.8425 11.3529 25.123 13.1191 25.897C14.8853 26.6711 16.8414 26.904 18.7399 26.5664C20.6385 26.2288 22.3943 25.3357 23.7854 24.0002C25.6482 22.2079 26.7239 19.7498 26.7766 17.1654C26.8292 14.5809 25.8544 12.0811 24.066 10.2145ZM18.5479 20.7109C18.4045 20.8487 18.2121 20.9238 18.0133 20.9198C17.8144 20.9157 17.6253 20.8328 17.4875 20.6893C17.3497 20.5458 17.2746 20.3535 17.2787 20.1546C17.2827 19.9558 17.3656 19.7667 17.5091 19.6289L19.4493 17.7661L12.7758 17.6309C12.6773 17.6289 12.5801 17.6075 12.4899 17.568C12.3996 17.5284 12.318 17.4714 12.2498 17.4004C12.1815 17.3293 12.1279 17.2454 12.0921 17.1536C12.0562 17.0619 12.0388 16.9639 12.0408 16.8654C12.0428 16.7668 12.0642 16.6697 12.1038 16.5794C12.1433 16.4892 12.2003 16.4076 12.2714 16.3393C12.3425 16.2711 12.4263 16.2175 12.5181 16.1817C12.6099 16.1458 12.7078 16.1284 12.8064 16.1304L19.4798 16.2669L17.617 14.3267C17.4793 14.1832 17.4041 13.9909 17.4082 13.792C17.4122 13.5931 17.4951 13.404 17.6386 13.2663C17.7821 13.1285 17.9744 13.0534 18.1733 13.0574C18.3722 13.0615 18.5613 13.1444 18.6991 13.2878L21.8156 16.5339C21.9534 16.6774 22.0285 16.8697 22.0244 17.0686C22.0204 17.2675 21.9375 17.4566 21.794 17.5944L18.5479 20.7109Z" fill="white"/>
</g>
<defs>
<clipPath id="clip0_884_4632">
<rect width="24" height="24" fill="white" transform="translate(17.3779) rotate(46.1662)"/>
</clipPath>
</defs>
</svg>
