<svg width="28" height="28" viewBox="0 0 28 28" fill="none" xmlns="http://www.w3.org/2000/svg">
<path d="M19.8686 14.6191L11.1186 23.3691C11.0373 23.4504 10.9408 23.5148 10.8345 23.5588C10.7283 23.6028 10.6145 23.6255 10.4995 23.6255C10.3845 23.6255 10.2707 23.6028 10.1645 23.5588C10.0583 23.5148 9.96174 23.4504 9.88045 23.3691C9.79915 23.2878 9.73466 23.1913 9.69067 23.085C9.64667 22.9788 9.62402 22.865 9.62402 22.75C9.62402 22.635 9.64667 22.5212 9.69067 22.415C9.73466 22.3087 9.79915 22.2122 9.88045 22.1309L18.0125 14L9.88045 5.86906C9.71626 5.70488 9.62402 5.48219 9.62402 5.25C9.62402 5.0178 9.71626 4.79512 9.88045 4.63094C10.0446 4.46675 10.2673 4.37451 10.4995 4.37451C10.7317 4.37451 10.9544 4.46675 11.1186 4.63094L19.8686 13.3809C19.9499 13.4622 20.0145 13.5587 20.0585 13.6649C20.1025 13.7711 20.1252 13.885 20.1252 14C20.1252 14.115 20.1025 14.2288 20.0585 14.3351C20.0145 14.4413 19.9499 14.5378 19.8686 14.6191Z" fill="#5E5E5E"/>
</svg>
