<svg width="16" height="16" viewBox="0 0 16 16" fill="none" xmlns="http://www.w3.org/2000/svg">
<path d="M15.1479 14.352L11.6273 10.8322C12.6477 9.60713 13.1566 8.03585 13.048 6.4452C12.9394 4.85455 12.2217 3.367 11.0443 2.292C9.86684 1.21701 8.32029 0.637327 6.72635 0.673552C5.13241 0.709777 3.6138 1.35912 2.48642 2.4865C1.35904 3.61387 0.709701 5.13249 0.673476 6.72643C0.637251 8.32037 1.21693 9.86691 2.29193 11.0443C3.36692 12.2218 4.85447 12.9394 6.44512 13.048C8.03577 13.1566 9.60705 12.6478 10.8321 11.6274L14.3519 15.148C14.4042 15.2002 14.4663 15.2417 14.5345 15.27C14.6028 15.2982 14.676 15.3128 14.7499 15.3128C14.8238 15.3128 14.897 15.2982 14.9653 15.27C15.0336 15.2417 15.0956 15.2002 15.1479 15.148C15.2001 15.0957 15.2416 15.0337 15.2699 14.9654C15.2982 14.8971 15.3127 14.8239 15.3127 14.75C15.3127 14.6761 15.2982 14.6029 15.2699 14.5346C15.2416 14.4663 15.2001 14.4043 15.1479 14.352ZM1.81242 6.87499C1.81242 5.87372 2.10933 4.89494 2.6656 4.06242C3.22188 3.22989 4.01253 2.58102 4.93758 2.19785C5.86263 1.81468 6.88053 1.71443 7.86256 1.90977C8.84459 2.1051 9.74664 2.58726 10.4546 3.29526C11.1626 4.00327 11.6448 4.90532 11.8401 5.88735C12.0355 6.86938 11.9352 7.88728 11.5521 8.81233C11.1689 9.73738 10.52 10.528 9.68749 11.0843C8.85497 11.6406 7.87618 11.9375 6.87492 11.9375C5.53271 11.936 4.24591 11.4022 3.29683 10.4531C2.34775 9.504 1.81391 8.21719 1.81242 6.87499Z" fill="#343330"/>
</svg>
