<svg width="13" height="8" viewBox="0 0 13 8" fill="none" xmlns="http://www.w3.org/2000/svg">
<path d="M12.8354 1.5855L7.21055 7.21031C7.15831 7.26261 7.09628 7.30409 7.02799 7.3324C6.95971 7.36071 6.88652 7.37528 6.8126 7.37528C6.73868 7.37528 6.66548 7.36071 6.5972 7.3324C6.52892 7.30409 6.46688 7.26261 6.41464 7.21031L0.789838 1.5855C0.684294 1.47996 0.625 1.33681 0.625 1.18755C0.625 1.03829 0.684294 0.895138 0.789838 0.789594C0.895382 0.68405 1.03853 0.624756 1.18779 0.624756C1.33706 0.624756 1.4802 0.68405 1.58575 0.789594L6.8126 6.01715L12.0394 0.789594C12.0917 0.737334 12.1537 0.695879 12.222 0.667596C12.2903 0.639313 12.3635 0.624756 12.4374 0.624756C12.5113 0.624756 12.5845 0.639313 12.6528 0.667596C12.7211 0.695879 12.7831 0.737334 12.8354 0.789594C12.8876 0.841854 12.9291 0.903896 12.9574 0.972177C12.9856 1.04046 13.0002 1.11364 13.0002 1.18755C13.0002 1.26146 12.9856 1.33464 12.9574 1.40292C12.9291 1.4712 12.8876 1.53324 12.8354 1.5855Z" fill="black"/>
</svg>
