<svg width="79" height="20" viewBox="0 0 79 20" fill="none" xmlns="http://www.w3.org/2000/svg">
<path d="M70.78 10.4838C70.78 11.1878 70.644 11.8158 70.372 12.3678C70.108 12.9118 69.74 13.3398 69.268 13.6518C68.804 13.9638 68.276 14.1198 67.684 14.1198C67.092 14.1198 66.56 13.9638 66.088 13.6518C65.624 13.3398 65.256 12.9118 64.984 12.3678C64.72 11.8158 64.588 11.1878 64.588 10.4838C64.588 9.77976 64.72 9.15576 64.984 8.61176C65.256 8.05976 65.624 7.62776 66.088 7.31576C66.56 6.99576 67.092 6.83576 67.684 6.83576C68.276 6.83576 68.804 6.99576 69.268 7.31576C69.74 7.62776 70.108 8.05976 70.372 8.61176C70.644 9.15576 70.78 9.77976 70.78 10.4838ZM69.16 10.4838C69.16 10.0518 69.096 9.67576 68.968 9.35576C68.848 9.02776 68.676 8.77176 68.452 8.58776C68.228 8.40376 67.972 8.31176 67.684 8.31176C67.388 8.31176 67.128 8.40376 66.904 8.58776C66.68 8.77176 66.504 9.02776 66.376 9.35576C66.256 9.67576 66.196 10.0518 66.196 10.4838C66.196 10.9158 66.256 11.2918 66.376 11.6118C66.504 11.9318 66.68 12.1838 66.904 12.3678C67.128 12.5518 67.388 12.6438 67.684 12.6438C67.972 12.6438 68.224 12.5518 68.44 12.3678C68.664 12.1838 68.84 11.9318 68.968 11.6118C69.096 11.2838 69.16 10.9078 69.16 10.4838ZM75.9431 11.1678C76.2791 11.2238 76.5711 11.3518 76.8191 11.5518C77.0671 11.7438 77.2591 11.9918 77.3951 12.2958C77.5391 12.5998 77.6111 12.9358 77.6111 13.3038C77.6111 13.7998 77.4831 14.2318 77.2271 14.5998C76.9711 14.9678 76.6071 15.2518 76.1351 15.4518C75.6711 15.6598 75.1231 15.7638 74.4911 15.7638C73.8831 15.7638 73.3431 15.6638 72.8711 15.4638C72.4071 15.2718 72.0191 14.9878 71.7071 14.6118L72.6191 13.4718C72.8271 13.7278 73.0751 13.9278 73.3631 14.0718C73.6591 14.2238 74.0191 14.2998 74.4431 14.2998C74.9311 14.2998 75.3031 14.1998 75.5591 13.9998C75.8151 13.8078 75.9431 13.5158 75.9431 13.1238C75.9431 12.7078 75.7951 12.3878 75.4991 12.1638C75.2031 11.9398 74.7551 11.8278 74.1551 11.8278H73.8191V10.6278H74.1911C74.6791 10.6278 75.0591 10.5158 75.3311 10.2918C75.6111 10.0678 75.7511 9.78776 75.7511 9.45176C75.7511 9.23576 75.6991 9.05576 75.5951 8.91176C75.4911 8.76776 75.3471 8.65976 75.1631 8.58776C74.9871 8.51576 74.7791 8.47976 74.5391 8.47976C74.1791 8.47976 73.8511 8.56376 73.5551 8.73176C73.2591 8.89976 73.0191 9.13576 72.8351 9.43976L71.8271 8.31176C71.9951 8.06376 72.2231 7.85176 72.5111 7.67576C72.8071 7.49176 73.1431 7.34776 73.5191 7.24376C73.9031 7.13976 74.3031 7.08776 74.7191 7.08776C75.2631 7.08776 75.7391 7.17576 76.1471 7.35176C76.5631 7.52776 76.8871 7.77576 77.1191 8.09576C77.3511 8.41576 77.4671 8.78776 77.4671 9.21176C77.4671 9.52376 77.4031 9.81976 77.2751 10.0998C77.1471 10.3798 76.9671 10.6158 76.7351 10.8078C76.5111 10.9918 76.2471 11.1118 75.9431 11.1678Z" fill="#FAE084"/>
<rect y="9.6665" width="48" height="1.33333" fill="#FAE084"/>
</svg>
