<svg width="14" height="15" viewBox="0 0 14 15" fill="none" xmlns="http://www.w3.org/2000/svg">
<path opacity="0.2" d="M10.7422 7.14502C10.7421 7.54124 10.8789 7.92533 11.1295 8.23227C11.3801 8.53921 11.729 8.75015 12.1172 8.82939C12.2142 8.84919 12.3013 8.90184 12.3639 8.97847C12.4266 9.05509 12.4608 9.15099 12.4609 9.24995V10.5825C12.4609 10.6965 12.4157 10.8058 12.3351 10.8864C12.2545 10.9669 12.1452 11.0122 12.0312 11.0122H5.15625V3.27783H12.0312C12.1452 3.27783 12.2545 3.3231 12.3351 3.40368C12.4157 3.48427 12.4609 3.59356 12.4609 3.70752V5.04009C12.4608 5.13905 12.4266 5.23495 12.3639 5.31157C12.3013 5.3882 12.2142 5.44085 12.1172 5.46064C11.729 5.53989 11.3801 5.75083 11.1295 6.05777C10.8789 6.36471 10.7421 6.7488 10.7422 7.14502Z" fill="#DAA520"/>
<path d="M12.2026 5.88174C12.3967 5.84224 12.5712 5.7369 12.6966 5.58353C12.822 5.43016 12.8905 5.23818 12.8906 5.04009V3.70752C12.8906 3.4796 12.8001 3.26101 12.6389 3.09985C12.4778 2.93869 12.2592 2.84814 12.0313 2.84814H1.71875C1.49083 2.84814 1.27225 2.93869 1.11108 3.09985C0.949918 3.26101 0.859377 3.4796 0.859377 3.70752V5.04009C0.859485 5.23818 0.928028 5.43016 1.0534 5.58353C1.17878 5.7369 1.3533 5.84224 1.54741 5.88174C1.83767 5.94193 2.09831 6.10032 2.28543 6.33023C2.47256 6.56014 2.57472 6.84751 2.57472 7.14395C2.57472 7.44038 2.47256 7.72775 2.28543 7.95766C2.09831 8.18757 1.83767 8.34596 1.54741 8.40615C1.35293 8.44572 1.17814 8.55138 1.05272 8.70519C0.927306 8.85901 0.858989 9.05149 0.859377 9.24995V10.5825C0.859377 10.8104 0.949918 11.029 1.11108 11.1902C1.27225 11.3514 1.49083 11.4419 1.71875 11.4419H12.0313C12.2592 11.4419 12.4778 11.3514 12.6389 11.1902C12.8001 11.029 12.8906 10.8104 12.8906 10.5825V9.24995C12.8905 9.05186 12.822 8.85988 12.6966 8.70651C12.5712 8.55314 12.3967 8.4478 12.2026 8.4083C11.9123 8.34811 11.6517 8.18972 11.4646 7.95981C11.2774 7.7299 11.1753 7.44253 11.1753 7.14609C11.1753 6.84966 11.2774 6.56229 11.4646 6.33238C11.6517 6.10247 11.9123 5.94408 12.2026 5.88389V5.88174ZM1.71875 9.25049C2.20413 9.15161 2.64044 8.88804 2.9538 8.50441C3.26716 8.12077 3.43833 7.64064 3.43833 7.14529C3.43833 6.64994 3.26716 6.1698 2.9538 5.78617C2.64044 5.40253 2.20413 5.13897 1.71875 5.04009V3.70752H4.72656V10.5825H1.71875V9.25049ZM12.0313 9.25049V10.5825H5.58594V3.70752H12.0313V5.03955C11.5459 5.13843 11.1096 5.40199 10.7962 5.78563C10.4828 6.16927 10.3117 6.6494 10.3117 7.14475C10.3117 7.6401 10.4828 8.12024 10.7962 8.50387C11.1096 8.88751 11.5459 9.15107 12.0313 9.24995V9.25049Z" fill="#DAA520"/>
</svg>
